<?xml version="1.0" encoding="UTF-8" standalone="no"?>
<!DOCTYPE svg PUBLIC "-//W3C//DTD SVG 1.1//EN" "http://www.w3.org/Graphics/SVG/1.1/DTD/svg11.dtd">
<svg width="100%" height="100%" viewBox="0 0 361 100" version="1.1" xmlns="http://www.w3.org/2000/svg" xmlns:xlink="http://www.w3.org/1999/xlink" xml:space="preserve" xmlns:serif="http://www.serif.com/" style="fill-rule:evenodd;clip-rule:evenodd;stroke-linejoin:round;stroke-miterlimit:2;">
    <g transform="matrix(1,0,0,1,-330,0)">
        <g id="banner:-light-bg" serif:id="banner: light bg" transform="matrix(4.40598,0,0,1.22388,-189.934,-34.5952)">
            <rect x="118.008" y="28.267" width="81.707" height="81.707" style="fill:white;fill-opacity:0;"/>
            <g transform="matrix(0.226964,0,0,0.817071,93.0324,28.2667)">
                <path d="M160.042,25.003L134.063,70L186.02,70L160.042,25.003Z" style="fill:url(#_Linear1);"/>
            </g>
            <g transform="matrix(0.234117,0,0,0.817071,32.9683,58.8222)">
                <g transform="matrix(64,0,0,64,448.396,32.665)">
                    <path d="M0.066,-0L0.066,-0.545L0.189,-0.545L0.189,-0.453L0.195,-0.453C0.207,-0.484 0.226,-0.508 0.252,-0.526C0.278,-0.544 0.309,-0.553 0.346,-0.553C0.383,-0.553 0.414,-0.544 0.439,-0.526C0.465,-0.508 0.483,-0.484 0.493,-0.453L0.499,-0.453C0.511,-0.483 0.531,-0.507 0.56,-0.525C0.589,-0.544 0.623,-0.553 0.663,-0.553C0.713,-0.553 0.754,-0.537 0.786,-0.505C0.817,-0.473 0.833,-0.427 0.833,-0.366L0.833,-0L0.704,-0L0.704,-0.346C0.704,-0.38 0.695,-0.405 0.677,-0.421C0.659,-0.436 0.637,-0.444 0.611,-0.444C0.58,-0.444 0.556,-0.435 0.538,-0.415C0.521,-0.396 0.513,-0.371 0.513,-0.34L0.513,-0L0.386,-0L0.386,-0.351C0.386,-0.38 0.378,-0.402 0.361,-0.419C0.344,-0.436 0.322,-0.444 0.295,-0.444C0.276,-0.444 0.26,-0.44 0.244,-0.43C0.229,-0.421 0.217,-0.408 0.208,-0.391C0.199,-0.374 0.195,-0.354 0.195,-0.332L0.195,-0L0.066,-0Z" style="fill:rgb(44,44,46);fill-rule:nonzero;"/>
                </g>
                <g transform="matrix(64,0,0,64,502.112,32.665)">
                    <path d="M0.304,0.011C0.251,0.011 0.205,-0.001 0.166,-0.024C0.126,-0.048 0.096,-0.081 0.075,-0.123C0.053,-0.165 0.043,-0.214 0.043,-0.27C0.043,-0.327 0.053,-0.376 0.075,-0.419C0.096,-0.461 0.126,-0.494 0.166,-0.517C0.205,-0.541 0.251,-0.553 0.304,-0.553C0.357,-0.553 0.403,-0.541 0.442,-0.517C0.482,-0.494 0.512,-0.461 0.533,-0.419C0.555,-0.376 0.565,-0.327 0.565,-0.27C0.565,-0.214 0.555,-0.165 0.533,-0.123C0.512,-0.081 0.482,-0.048 0.442,-0.024C0.403,-0.001 0.357,0.011 0.304,0.011ZM0.305,-0.092C0.334,-0.092 0.358,-0.1 0.377,-0.116C0.396,-0.132 0.411,-0.154 0.421,-0.181C0.43,-0.208 0.435,-0.238 0.435,-0.271C0.435,-0.304 0.43,-0.335 0.421,-0.362C0.411,-0.389 0.396,-0.41 0.377,-0.426C0.358,-0.443 0.334,-0.451 0.305,-0.451C0.275,-0.451 0.251,-0.443 0.231,-0.426C0.212,-0.41 0.197,-0.389 0.187,-0.362C0.178,-0.335 0.173,-0.304 0.173,-0.271C0.173,-0.238 0.178,-0.208 0.187,-0.181C0.197,-0.154 0.212,-0.132 0.231,-0.116C0.251,-0.1 0.275,-0.092 0.305,-0.092Z" style="fill:rgb(44,44,46);fill-rule:nonzero;"/>
                </g>
                <g transform="matrix(64,0,0,64,538.374,32.665)">
                    <path d="M0.268,0.01C0.226,0.01 0.187,-0.001 0.153,-0.023C0.12,-0.045 0.093,-0.077 0.073,-0.119C0.054,-0.161 0.044,-0.212 0.044,-0.272C0.044,-0.333 0.054,-0.384 0.074,-0.426C0.094,-0.467 0.121,-0.499 0.155,-0.52C0.189,-0.542 0.227,-0.553 0.269,-0.553C0.301,-0.553 0.327,-0.547 0.348,-0.536C0.368,-0.526 0.385,-0.513 0.397,-0.498C0.409,-0.483 0.418,-0.468 0.425,-0.455L0.43,-0.455L0.43,-0.727L0.559,-0.727L0.559,-0L0.432,-0L0.432,-0.086L0.425,-0.086C0.418,-0.073 0.408,-0.059 0.396,-0.044C0.383,-0.029 0.367,-0.016 0.346,-0.006C0.326,0.004 0.3,0.01 0.268,0.01ZM0.304,-0.096C0.332,-0.096 0.355,-0.103 0.374,-0.118C0.393,-0.133 0.408,-0.153 0.418,-0.18C0.428,-0.206 0.433,-0.237 0.433,-0.273C0.433,-0.308 0.428,-0.339 0.418,-0.365C0.408,-0.391 0.393,-0.411 0.374,-0.426C0.355,-0.44 0.332,-0.447 0.304,-0.447C0.276,-0.447 0.252,-0.44 0.233,-0.425C0.214,-0.41 0.199,-0.389 0.189,-0.363C0.18,-0.337 0.175,-0.307 0.175,-0.273C0.175,-0.239 0.18,-0.208 0.19,-0.182C0.199,-0.155 0.214,-0.134 0.233,-0.119C0.252,-0.103 0.276,-0.096 0.304,-0.096Z" style="fill:rgb(44,44,46);fill-rule:nonzero;"/>
                </g>
                <g transform="matrix(64,0,0,64,576.182,32.665)">
                    <path d="M0.338,-0.545L0.338,-0.446L0.025,-0.446L0.025,-0.545L0.338,-0.545ZM0.102,-0.676L0.231,-0.676L0.231,-0.164C0.231,-0.147 0.234,-0.134 0.239,-0.124C0.244,-0.115 0.251,-0.109 0.26,-0.106C0.269,-0.103 0.278,-0.101 0.289,-0.101C0.297,-0.101 0.304,-0.101 0.311,-0.103C0.318,-0.104 0.323,-0.105 0.327,-0.106L0.348,-0.005C0.341,-0.003 0.332,-0 0.319,0.002C0.306,0.005 0.291,0.007 0.273,0.007C0.241,0.008 0.212,0.003 0.186,-0.007C0.16,-0.018 0.14,-0.035 0.125,-0.058C0.11,-0.08 0.102,-0.109 0.102,-0.143L0.102,-0.676Z" style="fill:rgb(44,44,46);fill-rule:nonzero;"/>
                </g>
                <g transform="matrix(64,0,0,64,597.534,32.665)">
                    <path d="M0.066,-0L0.066,-0.545L0.191,-0.545L0.191,-0.455L0.196,-0.455C0.206,-0.486 0.223,-0.51 0.248,-0.528C0.272,-0.545 0.3,-0.553 0.331,-0.553C0.338,-0.553 0.346,-0.553 0.355,-0.552C0.364,-0.552 0.371,-0.551 0.377,-0.55L0.377,-0.432C0.372,-0.433 0.363,-0.435 0.351,-0.437C0.34,-0.438 0.328,-0.439 0.318,-0.439C0.294,-0.439 0.273,-0.434 0.254,-0.424C0.236,-0.414 0.221,-0.4 0.211,-0.382C0.2,-0.364 0.195,-0.344 0.195,-0.321L0.195,-0L0.066,-0Z" style="fill:rgb(44,44,46);fill-rule:nonzero;"/>
                </g>
                <g transform="matrix(64,0,0,64,618.375,32.665)">
                    <path d="M0.308,0.011C0.253,0.011 0.206,-0.001 0.166,-0.024C0.126,-0.047 0.096,-0.079 0.075,-0.121C0.053,-0.163 0.043,-0.213 0.043,-0.27C0.043,-0.326 0.053,-0.375 0.075,-0.417C0.096,-0.46 0.126,-0.493 0.165,-0.517C0.203,-0.541 0.249,-0.553 0.301,-0.553C0.334,-0.553 0.366,-0.547 0.396,-0.536C0.426,-0.526 0.453,-0.509 0.476,-0.487C0.499,-0.464 0.517,-0.436 0.53,-0.401C0.543,-0.366 0.55,-0.325 0.55,-0.277L0.55,-0.237L0.103,-0.237L0.103,-0.324L0.427,-0.324C0.427,-0.349 0.421,-0.371 0.411,-0.39C0.401,-0.409 0.386,-0.425 0.368,-0.436C0.349,-0.447 0.327,-0.452 0.303,-0.452C0.276,-0.452 0.253,-0.446 0.233,-0.433C0.213,-0.421 0.198,-0.404 0.187,-0.384C0.176,-0.363 0.17,-0.341 0.17,-0.316L0.17,-0.241C0.17,-0.209 0.176,-0.182 0.187,-0.159C0.199,-0.137 0.215,-0.119 0.236,-0.107C0.257,-0.095 0.281,-0.089 0.309,-0.089C0.328,-0.089 0.345,-0.092 0.36,-0.097C0.375,-0.103 0.388,-0.111 0.4,-0.121C0.411,-0.132 0.419,-0.145 0.425,-0.16L0.545,-0.146C0.537,-0.115 0.523,-0.087 0.502,-0.064C0.48,-0.04 0.453,-0.022 0.42,-0.009C0.388,0.004 0.35,0.011 0.308,0.011Z" style="fill:rgb(44,44,46);fill-rule:nonzero;"/>
                </g>
                <g transform="matrix(64,0,0,64,653.728,32.665)">
                    <path d="M0.308,0.011C0.253,0.011 0.206,-0.001 0.166,-0.024C0.126,-0.047 0.096,-0.079 0.075,-0.121C0.053,-0.163 0.043,-0.213 0.043,-0.27C0.043,-0.326 0.053,-0.375 0.075,-0.417C0.096,-0.46 0.126,-0.493 0.165,-0.517C0.203,-0.541 0.249,-0.553 0.301,-0.553C0.334,-0.553 0.366,-0.547 0.396,-0.536C0.426,-0.526 0.453,-0.509 0.476,-0.487C0.499,-0.464 0.517,-0.436 0.53,-0.401C0.543,-0.366 0.55,-0.325 0.55,-0.277L0.55,-0.237L0.103,-0.237L0.103,-0.324L0.427,-0.324C0.427,-0.349 0.421,-0.371 0.411,-0.39C0.401,-0.409 0.386,-0.425 0.368,-0.436C0.349,-0.447 0.327,-0.452 0.303,-0.452C0.276,-0.452 0.253,-0.446 0.233,-0.433C0.213,-0.421 0.198,-0.404 0.187,-0.384C0.176,-0.363 0.17,-0.341 0.17,-0.316L0.17,-0.241C0.17,-0.209 0.176,-0.182 0.187,-0.159C0.199,-0.137 0.215,-0.119 0.236,-0.107C0.257,-0.095 0.281,-0.089 0.309,-0.089C0.328,-0.089 0.345,-0.092 0.36,-0.097C0.375,-0.103 0.388,-0.111 0.4,-0.121C0.411,-0.132 0.419,-0.145 0.425,-0.16L0.545,-0.146C0.537,-0.115 0.523,-0.087 0.502,-0.064C0.48,-0.04 0.453,-0.022 0.42,-0.009C0.388,0.004 0.35,0.011 0.308,0.011Z" style="fill:rgb(44,44,46);fill-rule:nonzero;"/>
                </g>
            </g>
        </g>
    </g>
    <defs>
        <linearGradient id="_Linear1" x1="0" y1="0" x2="1" y2="0" gradientUnits="userSpaceOnUse" gradientTransform="matrix(51.9576,0,0,44.9966,134.063,47.5017)"><stop offset="0" style="stop-color:rgb(244,114,181);stop-opacity:1"/><stop offset="1" style="stop-color:rgb(251,146,60);stop-opacity:1"/></linearGradient>
    </defs>
</svg>
