<?xml version="1.0" encoding="UTF-8" standalone="no"?>
<!DOCTYPE svg PUBLIC "-//W3C//DTD SVG 1.1//EN" "http://www.w3.org/Graphics/SVG/1.1/DTD/svg11.dtd">
<svg width="100%" height="100%" viewBox="0 0 269 88" version="1.1" xmlns="http://www.w3.org/2000/svg" xmlns:xlink="http://www.w3.org/1999/xlink" xml:space="preserve" xmlns:serif="http://www.serif.com/" style="fill-rule:evenodd;clip-rule:evenodd;stroke-linejoin:round;stroke-miterlimit:2;">
    <g transform="matrix(1,0,0,1,0,-96)">
        <g id="logo-light" transform="matrix(0.369168,0,0,0.119433,-27.5672,75.2453)">
            <rect x="74.674" y="181.969" width="728.444" height="728.444" style="fill:none;"/>
            <g transform="matrix(4.46928,0,0,13.3926,-252.232,-1316.28)">
                <g transform="matrix(28.4883,0,0,28.4883,118.467,148.441)">
                    <path d="M0.076,-0L0.182,-0L0.182,-0.325C0.182,-0.349 0.187,-0.37 0.197,-0.388C0.206,-0.407 0.22,-0.422 0.237,-0.433C0.253,-0.444 0.272,-0.45 0.294,-0.45C0.325,-0.45 0.35,-0.441 0.368,-0.423C0.386,-0.405 0.395,-0.381 0.395,-0.351L0.395,-0L0.502,-0L0.502,-0.335C0.502,-0.357 0.506,-0.376 0.515,-0.393C0.525,-0.41 0.538,-0.424 0.554,-0.434C0.571,-0.445 0.591,-0.45 0.613,-0.45C0.648,-0.45 0.673,-0.44 0.69,-0.422C0.707,-0.404 0.715,-0.377 0.715,-0.34L0.715,-0L0.822,-0L0.822,-0.366C0.822,-0.403 0.815,-0.434 0.801,-0.46C0.788,-0.486 0.769,-0.506 0.743,-0.52C0.718,-0.534 0.687,-0.541 0.652,-0.541C0.627,-0.541 0.604,-0.537 0.583,-0.529C0.562,-0.521 0.543,-0.51 0.528,-0.496C0.512,-0.482 0.499,-0.465 0.49,-0.446L0.482,-0.446C0.474,-0.465 0.463,-0.482 0.449,-0.496C0.436,-0.51 0.419,-0.521 0.4,-0.529C0.381,-0.537 0.359,-0.541 0.335,-0.541C0.3,-0.541 0.27,-0.533 0.245,-0.517C0.22,-0.501 0.202,-0.478 0.19,-0.449L0.182,-0.449L0.182,-0.53L0.076,-0.53L0.076,-0Z" style="fill:rgb(68,68,68);fill-rule:nonzero;"/>
                </g>
                <g transform="matrix(28.4883,0,0,28.4883,141.777,148.441)">
                    <path d="M0.301,0.01C0.353,0.01 0.397,-0.001 0.435,-0.023C0.472,-0.045 0.501,-0.077 0.521,-0.118C0.541,-0.159 0.552,-0.208 0.552,-0.265L0.552,-0.266C0.552,-0.323 0.541,-0.372 0.521,-0.413C0.501,-0.454 0.472,-0.485 0.435,-0.507C0.397,-0.53 0.353,-0.541 0.301,-0.541C0.249,-0.541 0.205,-0.53 0.167,-0.507C0.13,-0.485 0.101,-0.454 0.08,-0.413C0.06,-0.372 0.05,-0.323 0.05,-0.266L0.05,-0.265C0.05,-0.208 0.06,-0.159 0.08,-0.118C0.1,-0.077 0.129,-0.045 0.167,-0.023C0.204,-0.001 0.249,0.01 0.301,0.01ZM0.301,-0.079C0.27,-0.079 0.245,-0.086 0.224,-0.101C0.202,-0.115 0.186,-0.137 0.175,-0.164C0.164,-0.192 0.158,-0.226 0.158,-0.265L0.158,-0.266C0.158,-0.305 0.164,-0.339 0.175,-0.366C0.186,-0.394 0.203,-0.415 0.224,-0.43C0.245,-0.445 0.27,-0.452 0.301,-0.452C0.331,-0.452 0.357,-0.445 0.378,-0.43C0.399,-0.415 0.415,-0.394 0.426,-0.366C0.437,-0.339 0.443,-0.305 0.443,-0.266L0.443,-0.265C0.443,-0.226 0.437,-0.192 0.426,-0.165C0.415,-0.137 0.399,-0.116 0.378,-0.101C0.357,-0.086 0.331,-0.079 0.301,-0.079Z" style="fill:rgb(68,68,68);fill-rule:nonzero;"/>
                </g>
                <g transform="matrix(28.4883,0,0,28.4883,157.325,148.441)">
                    <path d="M0.27,0.009C0.307,0.009 0.34,0.001 0.368,-0.015C0.396,-0.032 0.417,-0.055 0.432,-0.084L0.441,-0.084L0.441,-0L0.547,-0L0.547,-0.738L0.441,-0.738L0.441,-0.446L0.432,-0.446C0.418,-0.475 0.397,-0.498 0.368,-0.514C0.339,-0.531 0.306,-0.539 0.27,-0.539C0.225,-0.539 0.186,-0.528 0.153,-0.506C0.12,-0.484 0.095,-0.452 0.077,-0.411C0.059,-0.37 0.05,-0.322 0.05,-0.266L0.05,-0.265C0.05,-0.209 0.059,-0.161 0.077,-0.12C0.095,-0.079 0.12,-0.047 0.153,-0.025C0.186,-0.002 0.225,0.009 0.27,0.009ZM0.3,-0.082C0.27,-0.082 0.245,-0.089 0.224,-0.104C0.203,-0.119 0.186,-0.14 0.175,-0.167C0.164,-0.194 0.158,-0.227 0.158,-0.265L0.158,-0.266C0.158,-0.304 0.164,-0.336 0.175,-0.364C0.186,-0.391 0.203,-0.412 0.224,-0.427C0.245,-0.441 0.27,-0.449 0.3,-0.449C0.329,-0.449 0.355,-0.441 0.376,-0.426C0.397,-0.412 0.414,-0.391 0.425,-0.363C0.437,-0.336 0.442,-0.304 0.442,-0.266L0.442,-0.265C0.442,-0.227 0.437,-0.195 0.425,-0.167C0.414,-0.14 0.397,-0.119 0.376,-0.104C0.355,-0.089 0.329,-0.082 0.3,-0.082Z" style="fill:rgb(68,68,68);fill-rule:nonzero;"/>
                </g>
                <g transform="matrix(28.4883,0,0,28.4883,173.526,148.441)">
                    <path d="M0.276,0.003C0.287,0.003 0.297,0.003 0.307,0.002C0.316,0.001 0.325,-0.001 0.334,-0.002L0.334,-0.087C0.326,-0.086 0.32,-0.086 0.314,-0.085C0.309,-0.085 0.302,-0.085 0.294,-0.085C0.268,-0.085 0.249,-0.091 0.237,-0.104C0.226,-0.116 0.22,-0.137 0.22,-0.165L0.22,-0.447L0.334,-0.447L0.334,-0.53L0.22,-0.53L0.22,-0.664L0.112,-0.664L0.112,-0.53L0.029,-0.53L0.029,-0.447L0.112,-0.447L0.112,-0.14C0.112,-0.089 0.125,-0.052 0.15,-0.03C0.176,-0.008 0.218,0.003 0.276,0.003Z" style="fill:rgb(68,68,68);fill-rule:nonzero;"/>
                </g>
                <g transform="matrix(28.4883,0,0,28.4883,182.536,148.441)">
                    <path d="M0.076,-0L0.182,-0L0.182,-0.317C0.182,-0.342 0.188,-0.365 0.2,-0.384C0.211,-0.402 0.227,-0.417 0.247,-0.427C0.268,-0.438 0.292,-0.443 0.319,-0.443C0.329,-0.443 0.338,-0.443 0.348,-0.442C0.357,-0.44 0.366,-0.439 0.376,-0.437L0.376,-0.535C0.37,-0.536 0.364,-0.537 0.355,-0.538C0.347,-0.539 0.338,-0.539 0.329,-0.539C0.294,-0.539 0.264,-0.532 0.241,-0.516C0.217,-0.5 0.2,-0.479 0.19,-0.45L0.182,-0.45L0.182,-0.53L0.076,-0.53L0.076,-0Z" style="fill:rgb(68,68,68);fill-rule:nonzero;"/>
                </g>
                <g transform="matrix(28.4883,0,0,28.4883,191.741,148.441)">
                    <path d="M0.299,0.01C0.333,0.01 0.363,0.006 0.389,-0.003C0.416,-0.012 0.438,-0.023 0.457,-0.038C0.476,-0.052 0.491,-0.068 0.502,-0.085C0.513,-0.103 0.521,-0.12 0.526,-0.138L0.527,-0.142L0.424,-0.142L0.422,-0.138C0.418,-0.129 0.411,-0.12 0.401,-0.11C0.39,-0.101 0.377,-0.093 0.36,-0.087C0.344,-0.08 0.324,-0.077 0.301,-0.077C0.272,-0.077 0.246,-0.084 0.224,-0.097C0.203,-0.11 0.186,-0.129 0.174,-0.153C0.163,-0.178 0.157,-0.208 0.157,-0.243L0.157,-0.285C0.157,-0.321 0.163,-0.352 0.175,-0.377C0.187,-0.402 0.203,-0.421 0.224,-0.434C0.244,-0.447 0.268,-0.454 0.294,-0.454C0.32,-0.454 0.344,-0.447 0.364,-0.435C0.384,-0.423 0.4,-0.404 0.411,-0.379C0.423,-0.354 0.429,-0.323 0.429,-0.285L0.429,-0.243L0.48,-0.313L0.104,-0.313L0.104,-0.237L0.532,-0.237L0.532,-0.275C0.532,-0.328 0.523,-0.374 0.504,-0.414C0.484,-0.454 0.457,-0.485 0.421,-0.507C0.385,-0.529 0.343,-0.541 0.293,-0.541C0.244,-0.541 0.201,-0.529 0.165,-0.506C0.128,-0.483 0.1,-0.451 0.08,-0.409C0.06,-0.368 0.05,-0.32 0.05,-0.264L0.05,-0.264C0.05,-0.208 0.06,-0.159 0.08,-0.118C0.1,-0.077 0.128,-0.046 0.166,-0.023C0.203,-0.001 0.247,0.01 0.299,0.01Z" style="fill:rgb(68,68,68);fill-rule:nonzero;"/>
                </g>
                <g transform="matrix(28.4883,0,0,28.4883,206.76,148.441)">
                    <path d="M0.299,0.01C0.333,0.01 0.363,0.006 0.389,-0.003C0.416,-0.012 0.438,-0.023 0.457,-0.038C0.476,-0.052 0.491,-0.068 0.502,-0.085C0.513,-0.103 0.521,-0.12 0.526,-0.138L0.527,-0.142L0.424,-0.142L0.422,-0.138C0.418,-0.129 0.411,-0.12 0.401,-0.11C0.39,-0.101 0.377,-0.093 0.36,-0.087C0.344,-0.08 0.324,-0.077 0.301,-0.077C0.272,-0.077 0.246,-0.084 0.224,-0.097C0.203,-0.11 0.186,-0.129 0.174,-0.153C0.163,-0.178 0.157,-0.208 0.157,-0.243L0.157,-0.285C0.157,-0.321 0.163,-0.352 0.175,-0.377C0.187,-0.402 0.203,-0.421 0.224,-0.434C0.244,-0.447 0.268,-0.454 0.294,-0.454C0.32,-0.454 0.344,-0.447 0.364,-0.435C0.384,-0.423 0.4,-0.404 0.411,-0.379C0.423,-0.354 0.429,-0.323 0.429,-0.285L0.429,-0.243L0.48,-0.313L0.104,-0.313L0.104,-0.237L0.532,-0.237L0.532,-0.275C0.532,-0.328 0.523,-0.374 0.504,-0.414C0.484,-0.454 0.457,-0.485 0.421,-0.507C0.385,-0.529 0.343,-0.541 0.293,-0.541C0.244,-0.541 0.201,-0.529 0.165,-0.506C0.128,-0.483 0.1,-0.451 0.08,-0.409C0.06,-0.368 0.05,-0.32 0.05,-0.264L0.05,-0.264C0.05,-0.208 0.06,-0.159 0.08,-0.118C0.1,-0.077 0.128,-0.046 0.166,-0.023C0.203,-0.001 0.247,0.01 0.299,0.01Z" style="fill:rgb(68,68,68);fill-rule:nonzero;"/>
                </g>
            </g>
            <g transform="matrix(0.26425,0,0,0.816799,37.6063,-25.3728)">
                <g id="triangle">
                    <path id="triangle1" serif:id="triangle" d="M586.189,481.416L819.397,885.344L352.981,885.344L586.189,481.416Z" style="fill:url(#_Linear1);"/>
                </g>
            </g>
        </g>
    </g>
    <defs>
        <linearGradient id="_Linear1" x1="0" y1="0" x2="1" y2="0" gradientUnits="userSpaceOnUse" gradientTransform="matrix(538.57,0,0,538.57,316.904,750.701)"><stop offset="0" style="stop-color:rgb(244,114,181);stop-opacity:1"/><stop offset="1" style="stop-color:rgb(251,146,60);stop-opacity:1"/></linearGradient>
    </defs>
</svg>
