<?xml version="1.0" encoding="UTF-8" standalone="no"?>
<!DOCTYPE svg PUBLIC "-//W3C//DTD SVG 1.1//EN" "http://www.w3.org/Graphics/SVG/1.1/DTD/svg11.dtd">
<svg width="100%" height="100%" viewBox="0 0 300 88" version="1.1" xmlns="http://www.w3.org/2000/svg" xmlns:xlink="http://www.w3.org/1999/xlink" xml:space="preserve" xmlns:serif="http://www.serif.com/" style="fill-rule:evenodd;clip-rule:evenodd;stroke-linejoin:round;stroke-miterlimit:2;">
    <g transform="matrix(1,0,0,1,0,-96)">
        <g id="logo-light" transform="matrix(0.411837,0,0,0.119433,-30.7535,75.2453)">
            <rect x="74.674" y="181.969" width="728.444" height="728.444" style="fill:none;"/>
            <g transform="matrix(4.00624,0,0,13.8146,-218.363,-1374.96)">
                <g id="modtree">
                    <g transform="matrix(28.4883,0,0,28.4883,118.467,148.441)">
                        <path d="M0.079,-0L0.164,-0L0.164,-0.326C0.164,-0.351 0.169,-0.373 0.18,-0.394C0.191,-0.414 0.205,-0.43 0.223,-0.442C0.242,-0.454 0.262,-0.46 0.285,-0.46C0.318,-0.46 0.345,-0.451 0.365,-0.432C0.385,-0.414 0.395,-0.389 0.395,-0.357L0.395,-0L0.479,-0L0.479,-0.338C0.479,-0.361 0.485,-0.381 0.495,-0.4C0.505,-0.418 0.519,-0.433 0.537,-0.444C0.555,-0.455 0.577,-0.46 0.601,-0.46C0.638,-0.46 0.666,-0.451 0.684,-0.431C0.702,-0.412 0.711,-0.383 0.711,-0.344L0.711,-0L0.796,-0L0.796,-0.364C0.796,-0.401 0.789,-0.432 0.776,-0.457C0.763,-0.483 0.744,-0.502 0.719,-0.516C0.695,-0.529 0.664,-0.536 0.628,-0.536C0.604,-0.536 0.582,-0.532 0.561,-0.524C0.54,-0.517 0.521,-0.506 0.505,-0.492C0.489,-0.478 0.477,-0.462 0.467,-0.443L0.459,-0.443C0.451,-0.462 0.44,-0.478 0.427,-0.491C0.413,-0.505 0.397,-0.516 0.378,-0.524C0.359,-0.532 0.338,-0.536 0.314,-0.536C0.279,-0.536 0.25,-0.528 0.226,-0.512C0.202,-0.497 0.184,-0.475 0.172,-0.446L0.164,-0.446L0.164,-0.526L0.079,-0.526L0.079,-0Z" style="fill:rgb(68,68,68);fill-rule:nonzero;"/>
                    </g>
                    <g transform="matrix(28.4883,0,0,28.4883,141.777,148.441)">
                        <path d="M0.295,0.009C0.346,0.009 0.389,-0.002 0.425,-0.024C0.461,-0.046 0.489,-0.077 0.509,-0.118C0.528,-0.158 0.538,-0.207 0.538,-0.263L0.538,-0.264C0.538,-0.32 0.528,-0.368 0.509,-0.409C0.489,-0.45 0.461,-0.481 0.425,-0.503C0.389,-0.525 0.346,-0.536 0.295,-0.536C0.246,-0.536 0.203,-0.525 0.166,-0.503C0.13,-0.481 0.102,-0.45 0.082,-0.409C0.063,-0.368 0.053,-0.32 0.053,-0.264L0.053,-0.263C0.053,-0.207 0.063,-0.158 0.082,-0.118C0.102,-0.077 0.13,-0.046 0.166,-0.024C0.203,-0.002 0.246,0.009 0.295,0.009ZM0.295,-0.066C0.262,-0.066 0.234,-0.074 0.211,-0.089C0.188,-0.105 0.17,-0.127 0.158,-0.157C0.146,-0.186 0.14,-0.221 0.14,-0.263L0.14,-0.264C0.14,-0.305 0.146,-0.341 0.158,-0.37C0.17,-0.399 0.188,-0.422 0.211,-0.437C0.234,-0.453 0.262,-0.46 0.295,-0.46C0.329,-0.46 0.357,-0.453 0.38,-0.437C0.403,-0.422 0.421,-0.399 0.433,-0.37C0.445,-0.341 0.451,-0.305 0.451,-0.264L0.451,-0.263C0.451,-0.221 0.445,-0.186 0.433,-0.157C0.421,-0.127 0.403,-0.105 0.38,-0.089C0.357,-0.074 0.329,-0.066 0.295,-0.066Z" style="fill:rgb(68,68,68);fill-rule:nonzero;"/>
                    </g>
                    <g transform="matrix(28.4883,0,0,28.4883,157.325,148.441)">
                        <path d="M0.273,0.009C0.31,0.009 0.343,0.001 0.371,-0.015C0.399,-0.032 0.422,-0.055 0.438,-0.084L0.445,-0.084L0.445,-0L0.53,-0L0.53,-0.735L0.445,-0.735L0.445,-0.443L0.438,-0.443C0.423,-0.471 0.401,-0.494 0.372,-0.51C0.342,-0.527 0.31,-0.536 0.273,-0.536C0.229,-0.536 0.19,-0.524 0.157,-0.502C0.124,-0.479 0.098,-0.448 0.08,-0.407C0.062,-0.367 0.053,-0.319 0.053,-0.264L0.053,-0.263C0.053,-0.208 0.062,-0.16 0.08,-0.119C0.098,-0.079 0.124,-0.047 0.157,-0.024C0.19,-0.002 0.229,0.009 0.273,0.009ZM0.293,-0.066C0.261,-0.066 0.234,-0.074 0.211,-0.09C0.188,-0.105 0.17,-0.128 0.158,-0.157C0.146,-0.187 0.14,-0.222 0.14,-0.263L0.14,-0.264C0.14,-0.305 0.146,-0.34 0.158,-0.369C0.17,-0.398 0.188,-0.421 0.211,-0.437C0.234,-0.453 0.261,-0.46 0.293,-0.46C0.325,-0.46 0.352,-0.452 0.375,-0.437C0.399,-0.421 0.416,-0.398 0.429,-0.369C0.441,-0.339 0.447,-0.304 0.447,-0.264L0.447,-0.263C0.447,-0.222 0.441,-0.187 0.429,-0.158C0.416,-0.128 0.399,-0.106 0.375,-0.09C0.352,-0.074 0.325,-0.066 0.293,-0.066Z" style="fill:rgb(68,68,68);fill-rule:nonzero;"/>
                    </g>
                    <g transform="matrix(28.4883,0,0,28.4883,173.526,148.441)">
                        <path d="M0.266,0.004C0.275,0.004 0.283,0.003 0.291,0.002C0.299,0.001 0.307,0 0.315,-0.001L0.315,-0.073C0.308,-0.073 0.301,-0.072 0.296,-0.072C0.29,-0.071 0.284,-0.071 0.276,-0.071C0.249,-0.071 0.229,-0.078 0.218,-0.092C0.206,-0.105 0.2,-0.127 0.2,-0.158L0.2,-0.456L0.315,-0.456L0.315,-0.526L0.2,-0.526L0.2,-0.663L0.112,-0.663L0.112,-0.526L0.029,-0.526L0.029,-0.456L0.112,-0.456L0.112,-0.137C0.112,-0.087 0.124,-0.051 0.149,-0.029C0.173,-0.007 0.212,0.004 0.266,0.004Z" style="fill:rgb(68,68,68);fill-rule:nonzero;"/>
                    </g>
                    <g transform="matrix(28.4883,0,0,28.4883,182.536,148.441)">
                        <path d="M0.079,-0L0.164,-0L0.164,-0.326C0.164,-0.352 0.17,-0.374 0.182,-0.394C0.194,-0.413 0.21,-0.428 0.231,-0.438C0.252,-0.449 0.276,-0.455 0.303,-0.455C0.312,-0.455 0.321,-0.454 0.329,-0.453C0.338,-0.453 0.346,-0.451 0.355,-0.45L0.355,-0.532C0.351,-0.533 0.345,-0.534 0.337,-0.534C0.329,-0.535 0.321,-0.536 0.313,-0.536C0.277,-0.536 0.247,-0.528 0.223,-0.513C0.199,-0.497 0.182,-0.476 0.172,-0.448L0.164,-0.448L0.164,-0.526L0.079,-0.526L0.079,-0Z" style="fill:rgb(68,68,68);fill-rule:nonzero;"/>
                    </g>
                    <g transform="matrix(28.4883,0,0,28.4883,191.741,148.441)">
                        <path d="M0.294,0.009C0.325,0.009 0.353,0.005 0.378,-0.003C0.403,-0.011 0.424,-0.021 0.442,-0.035C0.461,-0.048 0.476,-0.064 0.487,-0.08C0.499,-0.097 0.507,-0.114 0.511,-0.132L0.512,-0.136L0.427,-0.136L0.425,-0.132C0.421,-0.121 0.413,-0.111 0.401,-0.101C0.39,-0.091 0.375,-0.083 0.358,-0.076C0.34,-0.07 0.32,-0.066 0.296,-0.066C0.264,-0.066 0.236,-0.073 0.213,-0.088C0.189,-0.102 0.171,-0.122 0.159,-0.149C0.146,-0.175 0.14,-0.207 0.14,-0.245L0.14,-0.278C0.14,-0.318 0.146,-0.351 0.159,-0.378C0.172,-0.405 0.19,-0.425 0.212,-0.439C0.234,-0.453 0.26,-0.46 0.288,-0.46C0.316,-0.46 0.341,-0.453 0.363,-0.44C0.385,-0.427 0.402,-0.407 0.415,-0.38C0.427,-0.354 0.433,-0.32 0.433,-0.278L0.433,-0.245L0.475,-0.307L0.097,-0.307L0.097,-0.239L0.519,-0.239L0.519,-0.272C0.519,-0.324 0.509,-0.37 0.491,-0.41C0.473,-0.449 0.446,-0.48 0.412,-0.502C0.378,-0.525 0.336,-0.536 0.289,-0.536C0.241,-0.536 0.2,-0.524 0.164,-0.501C0.129,-0.478 0.101,-0.446 0.082,-0.405C0.062,-0.364 0.053,-0.316 0.053,-0.262L0.053,-0.261C0.053,-0.206 0.062,-0.158 0.082,-0.118C0.101,-0.077 0.129,-0.046 0.165,-0.024C0.201,-0.002 0.244,0.009 0.294,0.009Z" style="fill:rgb(68,68,68);fill-rule:nonzero;"/>
                    </g>
                    <g transform="matrix(28.4883,0,0,28.4883,206.76,148.441)">
                        <path d="M0.294,0.009C0.325,0.009 0.353,0.005 0.378,-0.003C0.403,-0.011 0.424,-0.021 0.442,-0.035C0.461,-0.048 0.476,-0.064 0.487,-0.08C0.499,-0.097 0.507,-0.114 0.511,-0.132L0.512,-0.136L0.427,-0.136L0.425,-0.132C0.421,-0.121 0.413,-0.111 0.401,-0.101C0.39,-0.091 0.375,-0.083 0.358,-0.076C0.34,-0.07 0.32,-0.066 0.296,-0.066C0.264,-0.066 0.236,-0.073 0.213,-0.088C0.189,-0.102 0.171,-0.122 0.159,-0.149C0.146,-0.175 0.14,-0.207 0.14,-0.245L0.14,-0.278C0.14,-0.318 0.146,-0.351 0.159,-0.378C0.172,-0.405 0.19,-0.425 0.212,-0.439C0.234,-0.453 0.26,-0.46 0.288,-0.46C0.316,-0.46 0.341,-0.453 0.363,-0.44C0.385,-0.427 0.402,-0.407 0.415,-0.38C0.427,-0.354 0.433,-0.32 0.433,-0.278L0.433,-0.245L0.475,-0.307L0.097,-0.307L0.097,-0.239L0.519,-0.239L0.519,-0.272C0.519,-0.324 0.509,-0.37 0.491,-0.41C0.473,-0.449 0.446,-0.48 0.412,-0.502C0.378,-0.525 0.336,-0.536 0.289,-0.536C0.241,-0.536 0.2,-0.524 0.164,-0.501C0.129,-0.478 0.101,-0.446 0.082,-0.405C0.062,-0.364 0.053,-0.316 0.053,-0.262L0.053,-0.261C0.053,-0.206 0.062,-0.158 0.082,-0.118C0.101,-0.077 0.129,-0.046 0.165,-0.024C0.201,-0.002 0.244,0.009 0.294,0.009Z" style="fill:rgb(68,68,68);fill-rule:nonzero;"/>
                    </g>
                </g>
            </g>
            <g transform="matrix(0.236872,0,0,0.816799,41.4467,-25.3728)">
                <g id="triangle">
                    <path id="triangle1" serif:id="triangle" d="M586.189,481.416L819.397,885.344L352.981,885.344L586.189,481.416Z" style="fill:url(#_Linear1);"/>
                </g>
            </g>
        </g>
    </g>
    <defs>
        <linearGradient id="_Linear1" x1="0" y1="0" x2="1" y2="0" gradientUnits="userSpaceOnUse" gradientTransform="matrix(538.57,0,0,538.57,316.904,750.701)"><stop offset="0" style="stop-color:rgb(244,114,181);stop-opacity:1"/><stop offset="1" style="stop-color:rgb(251,146,60);stop-opacity:1"/></linearGradient>
    </defs>
</svg>
