<?xml version="1.0" encoding="UTF-8" standalone="no"?>
<!-- Created with Inkscape (http://www.inkscape.org/) -->

<svg
   width="1000"
   height="1000"
   viewBox="0 0 264.58333 264.58334"
   version="1.1"
   id="svg5"
   xmlns="http://www.w3.org/2000/svg"
   xmlns:svg="http://www.w3.org/2000/svg">
  <defs
     id="defs2" />
  <g
     id="layer1">
    <path
       id="path112"
       style="fill:#000000;stroke-width:0.999999"
       d="M 500 38.398438 A 461.60225 461.60225 0 0 0 38.398438 500 A 461.60225 461.60225 0 0 0 500 961.60156 A 461.60225 461.60225 0 0 0 961.60156 500 A 461.60225 461.60225 0 0 0 500 38.398438 z M 500 192.2168 A 307.78253 307.78253 0 0 1 807.7832 500 A 307.78253 307.78253 0 0 1 500 807.7832 A 307.78253 307.78253 0 0 1 192.2168 500 A 307.78253 307.78253 0 0 1 500 192.2168 z "
       transform="scale(0.26458333)" />
  </g>
  <g
     id="layer2" />
</svg>
